<?xml version="1.0" encoding="UTF-8" standalone="no"?>
<!DOCTYPE svg PUBLIC "-//W3C//DTD SVG 1.1//EN"
 "http://www.w3.org/Graphics/SVG/1.1/DTD/svg11.dtd">
<!-- Generated by graphviz version 2.49.1 (20210923.0004)
 -->
<!-- Title: testTwoSum Pages: 1 -->
<svg width="252pt" height="46pt"
 viewBox="0.00 0.00 252.00 46.00" xmlns="http://www.w3.org/2000/svg" xmlns:xlink="http://www.w3.org/1999/xlink">
<g id="graph0" class="graph" transform="scale(1 1) rotate(0) translate(4 42)">
<title>testTwoSum</title>
<polygon fill="white" stroke="transparent" points="-4,4 -4,-42 248,-42 248,4 -4,4"/>
<!-- Node1 -->
<g id="node1" class="node">
<title>Node1</title>
<g id="a_node1"><a xlink:title="Self&#45;test implementations.">
<polygon fill="#bfbfbf" stroke="black" points="0,-0.5 0,-19.5 72,-19.5 72,-0.5 0,-0.5"/>
<text text-anchor="middle" x="36" y="-7.5" font-family="Helvetica,sans-Serif" font-size="10.00">testTwoSum</text>
</a>
</g>
</g>
<!-- Node2 -->
<g id="node2" class="node">
<title>Node2</title>
<g id="a_node2"><a xlink:href="../../d6/dac/1_8c.html#a3ca011a91501e6dcd7f1cd6752eda646" target="_top" xlink:title="Given an array of integers and an integer target, find the two numbers such that they add up to a giv...">
<polygon fill="white" stroke="black" points="108,-0.5 108,-19.5 161,-19.5 161,-0.5 108,-0.5"/>
<text text-anchor="middle" x="134.5" y="-7.5" font-family="Helvetica,sans-Serif" font-size="10.00">twoSum</text>
</a>
</g>
</g>
<!-- Node1&#45;&gt;Node2 -->
<g id="edge1" class="edge">
<title>Node1&#45;&gt;Node2</title>
<path fill="none" stroke="midnightblue" d="M72.11,-10C80.45,-10 89.35,-10 97.72,-10"/>
<polygon fill="midnightblue" stroke="midnightblue" points="97.94,-13.5 107.94,-10 97.94,-6.5 97.94,-13.5"/>
</g>
<!-- Node2&#45;&gt;Node2 -->
<g id="edge3" class="edge">
<title>Node2&#45;&gt;Node2</title>
<path fill="none" stroke="midnightblue" d="M121.24,-19.76C114.8,-28.57 119.21,-38 134.5,-38 144.05,-38 149.36,-34.31 150.43,-29.4"/>
<polygon fill="midnightblue" stroke="midnightblue" points="153.8,-28.46 147.76,-19.76 147.05,-30.33 153.8,-28.46"/>
</g>
<!-- Node3 -->
<g id="node3" class="node">
<title>Node3</title>
<g id="a_node3"><a xlink:href="../../d6/dac/1_8c.html#a795db0ce8d594b75ff4ee7cd2a5e90e5" target="_top" xlink:title="Prepare the output at the end of the execution.">
<polygon fill="white" stroke="black" points="197,-0.5 197,-19.5 244,-19.5 244,-0.5 197,-0.5"/>
<text text-anchor="middle" x="220.5" y="-7.5" font-family="Helvetica,sans-Serif" font-size="10.00">ending</text>
</a>
</g>
</g>
<!-- Node2&#45;&gt;Node3 -->
<g id="edge2" class="edge">
<title>Node2&#45;&gt;Node3</title>
<path fill="none" stroke="midnightblue" d="M161.16,-10C169.25,-10 178.31,-10 186.82,-10"/>
<polygon fill="midnightblue" stroke="midnightblue" points="186.84,-13.5 196.84,-10 186.84,-6.5 186.84,-13.5"/>
</g>
</g>
</svg>
